<?xml version="1.0" encoding="UTF-8" standalone="no"?>
<!-- Created with Inkscape (http://www.inkscape.org/) -->

<svg
   width="138.58723mm"
   height="67.100136mm"
   viewBox="0 0 138.58723 67.100136"
   version="1.1"
   id="svg1"
   xml:space="preserve"
   xmlns:inkscape="http://www.inkscape.org/namespaces/inkscape"
   xmlns:sodipodi="http://sodipodi.sourceforge.net/DTD/sodipodi-0.dtd"
   xmlns="http://www.w3.org/2000/svg"
   xmlns:svg="http://www.w3.org/2000/svg"><sodipodi:namedview
     id="namedview1"
     pagecolor="#ffffff"
     bordercolor="#000000"
     borderopacity="0.25"
     inkscape:showpageshadow="2"
     inkscape:pageopacity="0.0"
     inkscape:pagecheckerboard="0"
     inkscape:deskcolor="#d1d1d1"
     inkscape:document-units="mm" /><defs
     id="defs1"><rect
       x="74.322083"
       y="558.05627"
       width="332.52725"
       height="144.79991"
       id="rect1" /><clipPath
       id="clip-path-3"><rect
         id="Rectángulo_1"
         data-name="Rectángulo 1"
         width="93.834999"
         height="81.639"
         fill="none"
         x="0"
         y="0" /></clipPath><clipPath
       id="clip-path-4"><rect
         id="Rectángulo_2"
         data-name="Rectángulo 2"
         width="75.853996"
         height="95.690002"
         fill="none"
         x="0"
         y="0" /></clipPath><clipPath
       id="clip-path-5"><rect
         id="Rectángulo_3"
         data-name="Rectángulo 3"
         width="160.897"
         height="123.794"
         fill="none"
         x="0"
         y="0" /></clipPath><clipPath
       id="clip-path-6"><rect
         id="Rectángulo_4"
         data-name="Rectángulo 4"
         width="91.403999"
         height="21.365999"
         fill="none"
         x="0"
         y="0" /></clipPath><clipPath
       id="clip-path-7"><rect
         id="Rectángulo_5"
         data-name="Rectángulo 5"
         width="88.764"
         height="40.902"
         fill="none"
         x="0"
         y="0" /></clipPath><clipPath
       id="clip-path-9"><rect
         id="Rectángulo_7"
         data-name="Rectángulo 7"
         width="77.480003"
         height="35.426998"
         fill="none"
         x="0"
         y="0" /></clipPath><clipPath
       id="clip-path-10"><rect
         id="Rectángulo_8"
         data-name="Rectángulo 8"
         width="20.757999"
         height="30.17"
         fill="none"
         x="0"
         y="0" /></clipPath><clipPath
       id="clip-path-11"><rect
         id="Rectángulo_9"
         data-name="Rectángulo 9"
         width="290.41"
         height="105.199"
         fill="none"
         x="0"
         y="0" /></clipPath><clipPath
       id="clip-path-12"><rect
         id="Rectángulo_10"
         data-name="Rectángulo 10"
         width="398.85699"
         height="72.676003"
         fill="none"
         x="0"
         y="0" /></clipPath><clipPath
       id="clip-path-13"><rect
         id="Rectángulo_11"
         data-name="Rectángulo 11"
         width="15.211"
         height="7.1199999"
         fill="none"
         x="0"
         y="0" /></clipPath><clipPath
       id="clip-path-14"><rect
         id="Rectángulo_12"
         data-name="Rectángulo 12"
         width="22.614"
         height="10.501"
         fill="none"
         x="0"
         y="0" /></clipPath><clipPath
       id="clip-path-15"><rect
         id="Rectángulo_13"
         data-name="Rectángulo 13"
         width="13.84"
         height="7.0580001"
         fill="none"
         x="0"
         y="0" /></clipPath><clipPath
       id="clip-path-16"><rect
         id="Rectángulo_14"
         data-name="Rectángulo 14"
         width="15.244"
         height="14.184"
         fill="none"
         x="0"
         y="0" /></clipPath><clipPath
       id="clip-path-17"><rect
         id="Rectángulo_15"
         data-name="Rectángulo 15"
         width="162.32001"
         height="36.658001"
         fill="none"
         x="0"
         y="0" /></clipPath><clipPath
       id="clip-path-18"><rect
         id="Rectángulo_16"
         data-name="Rectángulo 16"
         width="57.686001"
         height="24.118999"
         fill="none"
         x="0"
         y="0" /></clipPath><clipPath
       id="clip-path-19"><rect
         id="Rectángulo_17"
         data-name="Rectángulo 17"
         width="58.812"
         height="14.191"
         fill="none"
         x="0"
         y="0" /></clipPath></defs><g
     inkscape:label="Capa 1"
     inkscape:groupmode="layer"
     id="layer1"
     transform="translate(-32.41871,-131.90197)"><g
       id="g2"
       inkscape:export-filename="g2.png"
       inkscape:export-xdpi="96"
       inkscape:export-ydpi="96"><path
         id="Trazado_1"
         data-name="Trazado 1"
         d="m 125.25815,160.30479 c -7.84569,1.12633 15.15401,9.2493 15.51781,6.72624 0.66146,-4.58788 5.12048,-13.00586 8.22245,-21.62837 0.81095,-2.25504 -2.20847,-6.44339 -2.8358,-5.31283 -6.74687,12.15813 -16.7431,19.61859 -20.90446,20.21417"
         fill="#13bfb1"
         style="stroke-width:0.264583" /><path
         id="Trazado_2"
         data-name="Trazado 2"
         d="m 142.51718,145.82573 a 57.161112,57.161112 0 0 1 -4.13676,5.09429 c 1.3634,0.39687 2.71674,0.81677 4.06135,1.17131 q 1.76557,0.46567 3.53007,0.93583 c 0.76438,-1.81001 1.5375,-3.68326 2.26537,-5.58033 -1.9013,-0.56171 -3.8063,-1.1086 -5.72003,-1.6211"
         fill="#fc508c"
         style="stroke-width:0.264583" /><g
         id="Grupo_3"
         data-name="Grupo 3"
         transform="matrix(0.26458333,0,0,0.26458333,121.48439,139.87155)"
         opacity="0.5"><g
           id="Grupo_2"
           data-name="Grupo 2"><g
             id="Grupo_1"
             data-name="Grupo 1"
             clip-path="url(#clip-path-3)"><path
               id="Trazado_3"
               data-name="Trazado 3"
               d="m 107.6,107.35 c -29.653,4.257 -5.313,5.9 3.823,2.836 18.956,-6.352 50.334,-34.573 67.264,-62.427 4.7,-7.741 10.293,-21.085 7.922,-16.812 -25.5,45.952 -63.281,74.149 -79.009,76.4"
               transform="translate(-93.333,-30.122)"
               fill="#ffffff" /></g></g></g><g
         id="Grupo_6"
         data-name="Grupo 6"
         transform="matrix(0.26458333,0,0,0.26458333,129.06576,142.19591)"
         style="isolation:isolate;mix-blend-mode:multiply"><g
           id="Grupo_5"
           data-name="Grupo 5"><g
             id="Grupo_4"
             data-name="Grupo 4"
             clip-path="url(#clip-path-4)"><path
               id="Trazado_4"
               data-name="Trazado 4"
               d="m 156.161,38.907 -0.1,0.031 c 3.2,8.218 -4.648,22.625 -11.75,37.537 -5,10.493 -18.487,41.715 -29.552,43.9 a 221.346,221.346 0 0 1 -32.1,3.549 c 18.709,7.634 43.531,13.9 44.26,8.846 2.5,-17.34 19.352,-49.156 31.077,-81.745 1.239,-3.45 0.107,-8.093 -1.836,-12.12"
               transform="translate(-82.661,-38.907)"
               fill="#edeae6" /></g></g></g><path
         id="Trazado_5"
         data-name="Trazado 5"
         d="M 63.834596,151.78627 C 56.336569,148.14322 42.756829,138.05254 35.276,133.27946 c -4.085431,-2.6043 -2.692135,-0.81175 -2.357966,-0.29105 0.283104,0.43604 24.505178,20.778 40.701647,31.13643 5.350669,3.42318 -6.455833,-10.72382 -9.785085,-12.33937"
         fill="#13bfb1"
         style="stroke-width:0.264583" /><g
         id="Grupo_9"
         data-name="Grupo 9"
         transform="matrix(0.26458333,0,0,0.26458333,32.420088,131.90389)"
         style="isolation:isolate;mix-blend-mode:multiply"><g
           id="Grupo_8"
           data-name="Grupo 8"><g
             id="Grupo_7"
             data-name="Grupo 7"
             clip-path="url(#clip-path-5)"><path
               id="Trazado_6"
               data-name="Trazado 6"
               d="m 481.623,75.154 c -8.732,-4.243 -19.651,-10.8 -31.4,-18.373 a 14.569,14.569 0 0 1 -9.8,-2.336 c -6.814,-4.658 -31.438,-23.154 -34.346,-24.563 -11.878,-5.756 -33.708,-24.855 -34.4,-25.93 -12.941,-7.959 -8.112,-1.721 -6.906,0.158 1.07,1.648 92.618,78.531 153.833,117.681 20.223,12.938 -24.4,-40.531 -36.983,-46.637"
               transform="translate(-362.891,-0.008)"
               fill="#edeae6" /></g></g></g><path
         id="Trazado_7"
         data-name="Trazado 7"
         d="m 43.193656,158.14103 c -3.967427,5.52 8.326173,12.17877 21.845058,14.39518 4.964906,0.81439 62.706246,4.67704 71.503646,2.92338 16.64229,-3.31575 14.17161,-8.87227 12.41054,-9.35222 -9.70306,-2.65192 -76.587344,-18.37426 -83.415182,-19.21828 -10.984441,-1.35546 -18.165497,5.43851 -22.344062,11.25194"
         fill="#13bfb1"
         style="fill:#13bfb1;fill-opacity:1;stroke-width:0.264583" /><path
         id="Trazado_8"
         data-name="Trazado 8"
         d="m 43.193657,158.14103 c -3.967427,5.52 8.326173,12.17877 21.845058,14.39518 4.964906,0.81439 62.706245,4.67704 71.503645,2.92338 5.28743,-1.05357 8.64552,-2.33336 10.71007,-3.60441 4.43415,-2.72971 -7.1628,8.06555 -79.537984,-3.00779 -4.468548,-0.68315 -15.996179,-3.51393 -20.240625,-5.53535 -6.14627,-2.9292 -4.280164,-5.17101 -4.280164,-5.17101"
         fill="#fc508c"
         style="stroke-width:0.264583" /><path
         id="Trazado_9"
         data-name="Trazado 9"
         d="m 138.89635,171.06143 c 4.09311,3.0427 12.64523,4.48415 12.49813,5.32368 -0.14711,0.83952 -17.58527,-3.08637 -23.35663,-4.09575 -4.30159,-0.75327 9.54247,-2.20848 10.8585,-1.22793"
         fill="#13bfb1"
         style="stroke-width:0.264583" /><g
         id="Grupo_12"
         data-name="Grupo 12"
         transform="matrix(0.26458333,0,0,0.26458333,127.21236,170.73308)"
         style="isolation:isolate;mix-blend-mode:multiply"><g
           id="Grupo_11"
           data-name="Grupo 11"><g
             id="Grupo_10"
             data-name="Grupo 10"
             clip-path="url(#clip-path-6)"><path
               id="Trazado_10"
               data-name="Trazado 10"
               d="m 126.835,157.512 c 15.583,4.218 38.646,10.784 38.676,10.615 0.556,-3.174 -31.767,-8.618 -47.237,-20.121 -4.974,-3.706 -57.3,1.794 -41.04,4.641 3.426,0.6 7.94,1.469 13.119,2.5 2.177,0.433 13.772,-3.784 36.482,2.365"
               transform="translate(-74.113,-146.764)"
               fill="#edeae6" /></g></g></g><path
         id="Trazado_11"
         data-name="Trazado 11"
         d="m 96.564083,180.89731 c -0.508794,2.90407 1.058333,5.60441 3.504137,6.0325 2.44581,0.4281 4.83923,-1.57639 5.34803,-4.48019 0.50879,-2.9038 -1.05966,-5.60149 -3.50573,-6.02959 -2.446075,-0.42809 -4.837644,1.57692 -5.346437,4.47728"
         fill="#edeae6"
         style="stroke-width:0.264583" /><path
         id="Trazado_12"
         data-name="Trazado 12"
         d="m 116.53192,181.20052 c -0.39899,2.27542 0.83212,4.39209 2.74955,4.7289 1.91744,0.33682 3.79783,-1.2356 4.19682,-3.51075 0.39899,-2.27516 -0.83238,-4.3905 -2.75166,-4.72732 -1.91929,-0.33681 -3.79519,1.23561 -4.19365,3.50917"
         fill="#edeae6"
         style="stroke-width:0.264583" /><path
         id="Trazado_13"
         data-name="Trazado 13"
         d="m 100.0677,186.92981 c 6.5778,1.15358 12.57908,-1.28005 19.21377,-1.00039 2.20345,0.0921 3.63247,-8.50926 1.4441,-8.23807 -5.08344,0.62998 -16.64229,-0.89164 -18.81532,-1.27132 z"
         fill="#edeae6"
         style="stroke-width:0.264583" /><path
         id="Trazado_14"
         data-name="Trazado 14"
         d="m 121.25394,177.84032 a 0.67283541,0.67283541 0 0 0 -0.52917,-0.14923 3.0453541,3.0453541 0 0 0 -1.49727,0.11959 c -5.56578,0.24845 -15.33869,-1.04404 -17.31804,-1.39065 l -1.84256,10.50952 c 6.57781,1.15358 12.57909,-1.27979 19.21378,-1.00039 1.92008,0.33655 3.79809,-1.23561 4.19682,-3.51076 0.36036,-2.05608 -0.61436,-3.97933 -2.22435,-4.57729"
         fill="#edeae6"
         style="stroke-width:0.264583" /><g
         id="Grupo_15"
         data-name="Grupo 15"
         transform="matrix(0.26458333,0,0,0.26458333,100.0677,176.42003)"
         style="isolation:isolate;mix-blend-mode:multiply"><g
           id="Grupo_14"
           data-name="Grupo 14"><g
             id="Grupo_13"
             data-name="Grupo 13"
             clip-path="url(#clip-path-7)"><path
               id="Trazado_15"
               data-name="Trazado 15"
               d="m 259.423,173.626 a 2.543,2.543 0 0 0 -2,-0.564 11.51,11.51 0 0 0 -5.659,0.452 c -21.036,0.939 -57.973,-3.946 -65.454,-5.256 l -6.964,39.721 c 24.861,4.36 47.543,-4.837 72.619,-3.781 7.257,1.272 14.355,-4.67 15.862,-13.269 1.362,-7.771 -2.322,-15.04 -8.407,-17.3"
               transform="translate(-179.349,-168.258)"
               fill="#edeae6" /></g></g></g><g
         id="Grupo_18"
         data-name="Grupo 18"
         transform="matrix(0.26458333,0,0,0.26458333,100.0677,176.42003)"
         style="isolation:isolate;mix-blend-mode:multiply"><g
           id="Grupo_17"
           data-name="Grupo 17"><g
             id="Grupo_16"
             data-name="Grupo 16"
             clip-path="url(#clip-path-7)"><path
               id="Trazado_16"
               data-name="Trazado 16"
               d="m 259.423,173.626 a 2.543,2.543 0 0 0 -2,-0.564 11.51,11.51 0 0 0 -5.659,0.452 c -21.036,0.939 -57.973,-3.946 -65.454,-5.256 l -6.964,39.721 c 24.861,4.36 47.543,-4.837 72.619,-3.781 7.257,1.272 14.355,-4.67 15.862,-13.269 1.362,-7.771 -2.322,-15.04 -8.407,-17.3"
               transform="translate(-179.349,-168.258)"
               fill="#13bfb1" /></g></g></g><g
         id="Grupo_21"
         data-name="Grupo 21"
         transform="matrix(0.26458333,0,0,0.26458333,103.05325,176.59757)"
         style="isolation:isolate;mix-blend-mode:multiply"><g
           id="Grupo_20"
           data-name="Grupo 20"><g
             id="Grupo_19"
             data-name="Grupo 19"
             clip-path="url(#clip-path-9)"><path
               id="Trazado_17"
               data-name="Trazado 17"
               d="m 248.14,173.626 a 2.543,2.543 0 0 0 -2,-0.564 11.51,11.51 0 0 0 -5.659,0.452 c -18.3,0.822 -48.63,-2.774 -61.135,-4.585 a 4.321,4.321 0 0 1 0.739,1.868 4.324,4.324 0 0 1 2.668,1.491 c 8.177,9.018 20.92,13.154 31.547,18.531 9.125,4.611 18.358,9 27.536,13.508 6.841,0.493 13.28,-5.255 14.708,-13.4 1.362,-7.771 -2.322,-15.04 -8.407,-17.3"
               transform="translate(-179.35,-168.929)"
               fill="#edeae6" /></g></g></g><path
         id="Trazado_18"
         data-name="Trazado 18"
         d="m 96.564083,180.89731 c -0.508794,2.90407 1.058333,5.60441 3.504137,6.0325 2.44581,0.4281 4.83923,-1.57639 5.34803,-4.48019 0.50879,-2.9038 -1.05966,-5.60149 -3.50573,-6.02959 -2.446075,-0.42809 -4.837644,1.57692 -5.346437,4.47728"
         fill="#edeae6"
         style="stroke-width:0.264583" /><path
         id="Trazado_19"
         data-name="Trazado 19"
         d="m 97.259143,181.01928 c -0.430477,2.44819 0.892439,4.7252 2.953547,5.08503 2.0611,0.35983 4.07908,-1.32821 4.50823,-3.77666 0.42916,-2.44846 -0.8935,-4.72043 -2.95539,-5.08238 -2.061902,-0.36195 -4.078027,1.32953 -4.506387,3.77401"
         fill="#374358"
         style="stroke-width:0.264583" /><g
         id="Grupo_24"
         data-name="Grupo 24"
         transform="matrix(0.26458333,0,0,0.26458333,99.301727,177.96255)"
         style="isolation:isolate;mix-blend-mode:multiply"><g
           id="Grupo_23"
           data-name="Grupo 23"><g
             id="Grupo_22"
             data-name="Grupo 22"
             clip-path="url(#clip-path-10)"><path
               id="Trazado_20"
               data-name="Trazado 20"
               d="m 250.532,187.024 c -1.861,10.622 5.933,18.679 10.167,17.016 4.967,-1.944 8.913,-7.064 10.033,-13.454 1.335,-7.62 -2.505,-14.32 -4.448,-15.652 -3.108,-2.318 -13.568,-0.366 -15.752,12.09"
               transform="translate(-250.25,-174.088)"
               fill="#374358" /></g></g></g><path
         id="Trazado_21"
         data-name="Trazado 21"
         d="m 115.67388,174.52614 c 11.72607,6.64634 37.71609,15.95438 50.96325,21.69848 7.23212,3.13637 3.53589,2.77442 2.5265,2.7559 -0.85116,-0.0156 -50.39095,-14.7902 -79.108826,-27.20551 -9.489545,-4.10104 20.415246,-0.1995 25.619076,2.75008"
         fill="#edeae6"
         style="stroke-width:0.264583" /><path
         id="Trazado_22"
         data-name="Trazado 22"
         d="m 115.67388,174.52614 c 11.72607,6.64634 37.71609,15.95438 50.96325,21.69848 7.23212,3.13637 3.53589,2.77442 2.5265,2.7559 -0.85116,-0.0156 -50.39095,-14.7902 -79.108826,-27.20551 -9.489545,-4.10104 20.415246,-0.1995 25.619076,2.75008"
         fill="#13bfb1"
         style="stroke-width:0.264583" /><g
         id="Grupo_27"
         data-name="Grupo 27"
         transform="matrix(0.26458333,0,0,0.26458333,88.207748,170.0015)"
         style="isolation:isolate;mix-blend-mode:multiply"><g
           id="Grupo_26"
           data-name="Grupo 26"><g
             id="Grupo_25"
             data-name="Grupo 25"
             clip-path="url(#clip-path-11)"><path
               id="Trazado_23"
               data-name="Trazado 23"
               d="m 58.9,157.893 c -4.582,-2.166 -19.922,-17.2 75.567,7.614 -2.869,-1.5 -5.591,-2.973 -8.125,-4.41 C 106.669,149.948 -6.356,135.2 29.51,150.7 120.065,189.849 265.395,235.2 312.938,249.2 200.556,212.326 78.031,166.94 58.9,157.893"
               transform="translate(-22.529,-143.999)"
               fill="#edeae6" /></g></g></g><g
         id="Grupo_30"
         data-name="Grupo 30"
         transform="matrix(0.26458333,0,0,0.26458333,42.747569,146.77215)"
         style="isolation:isolate;mix-blend-mode:multiply"><g
           id="Grupo_29"
           data-name="Grupo 29"><g
             id="Grupo_28"
             data-name="Grupo 28"
             clip-path="url(#clip-path-12)"><path
               id="Trazado_24"
               data-name="Trazado 24"
               d="m 85.9,102.605 c 0,0 16.416,-11.147 47.952,-27.016 15.628,-7.865 23.6,-17.151 162.68,11.815 119.768,24.945 194.422,43.153 187.82,41.352 C 447.972,118.819 197.222,59.896 171.625,56.732 130.447,51.648 93.87,84.462 85.9,102.605"
               transform="translate(-85.899,-56.203)"
               fill="#edeae6" /></g></g></g><path
         id="Trazado_25"
         data-name="Trazado 25"
         d="m 58.60299,157.86216 c -3.032125,-0.73528 -6.34709,-2.24764 -7.31229,-3.18691 -0.9652,-0.93927 -1.07315,-1.524 -1.140883,-3.11229 -0.01826,-0.42678 2.430727,-1.91003 2.564606,-1.70815 a 18.214975,18.214975 0 0 0 1.896533,2.42279 c 0,0 3.531394,2.83765 7.083955,4.44209 2.554022,1.15279 -0.471753,1.778 -3.091921,1.14273"
         fill="#374358"
         style="stroke-width:0.264583" /><g
         id="Grupo_33"
         data-name="Grupo 33"
         transform="matrix(0.26458333,0,0,0.26458333,50.187917,151.25525)"
         opacity="0.4"><g
           id="Grupo_32"
           data-name="Grupo 32"><g
             id="Grupo_31"
             data-name="Grupo 31"
             clip-path="url(#clip-path-13)"><path
               id="Trazado_26"
               data-name="Trazado 26"
               d="m 441.425,76.85 a 20.518,20.518 0 0 0 0.5,3.417 c 4.883,-1.707 9.792,-3.335 14.713,-4.926 -0.51,-0.592 -1.13,-1.329 -1.819,-2.193 a 106.117,106.117 0 0 1 -13.391,3.7"
               transform="translate(-441.425,-73.147)"
               fill="#ffffff" /></g></g></g><g
         id="Grupo_36"
         data-name="Grupo 36"
         transform="matrix(0.26458333,0,0,0.26458333,52.12599,153.80054)"
         opacity="0.4"><g
           id="Grupo_35"
           data-name="Grupo 35"><g
             id="Grupo_34"
             data-name="Grupo 34"
             clip-path="url(#clip-path-14)"><path
               id="Trazado_27"
               data-name="Trazado 27"
               d="m 426.7,88.408 a 70.931,70.931 0 0 0 9.8,4.861 132.945,132.945 0 0 0 12.817,-6.922 c -1.952,-1.239 -3.771,-2.455 -5.4,-3.58 q -8.643,2.721 -17.214,5.641"
               transform="translate(-426.696,-82.767)"
               fill="#ffffff" /></g></g></g><g
         id="Grupo_39"
         data-name="Grupo 39"
         transform="matrix(0.26458333,0,0,0.26458333,58.149758,156.2265)"
         opacity="0.4"><g
           id="Grupo_38"
           data-name="Grupo 38"><g
             id="Grupo_37"
             data-name="Grupo 37"
             clip-path="url(#clip-path-15)"><path
               id="Trazado_28"
               data-name="Trazado 28"
               d="m 422.246,91.936 c -3.132,2 -6.307,3.935 -9.543,5.745 0.572,0.151 1.146,0.3 1.713,0.437 a 34.9,34.9 0 0 0 5.739,0.875 c 2.073,-1.725 4.216,-3.371 6.388,-4.984 -0.148,-0.071 -0.284,-0.139 -0.441,-0.211 -1.292,-0.582 -2.578,-1.207 -3.856,-1.862"
               transform="translate(-412.703,-91.936)"
               fill="#ffffff" /></g></g></g><g
         id="Grupo_42"
         data-name="Grupo 42"
         transform="matrix(0.26458333,0,0,0.26458333,50.149817,149.83602)"
         style="isolation:isolate;mix-blend-mode:multiply"><g
           id="Grupo_41"
           data-name="Grupo 41"><g
             id="Grupo_40"
             data-name="Grupo 40"
             clip-path="url(#clip-path-16)"><path
               id="Trazado_29"
               data-name="Trazado 29"
               d="m 456.779,75.214 a 74.073,74.073 0 0 1 -5.551,-7.36 c -0.506,-0.763 -9.762,4.844 -9.693,6.456 a 40.874,40.874 0 0 0 1.226,7.657 c 5.533,-2.311 9.315,-4.641 14.018,-6.753"
               transform="translate(-441.535,-67.783)"
               fill="#374358" /></g></g></g><path
         id="Trazado_30"
         data-name="Trazado 30"
         d="m 81.365358,164.9977 c -0.09948,0.71438 0.248973,1.3515 0.777611,1.42558 0.528637,0.0741 1.039812,-0.44397 1.13956,-1.15808 0.09975,-0.71411 -0.248179,-1.35149 -0.77814,-1.42584 -0.52996,-0.0744 -1.039548,0.4445 -1.139031,1.15834"
         fill="#374358"
         style="stroke-width:0.264583" /><path
         id="Trazado_31"
         data-name="Trazado 31"
         d="m 85.075346,165.51576 c -0.100013,0.71437 0.248708,1.35202 0.778404,1.42557 0.529696,0.0736 1.038754,-0.44423 1.137708,-1.15755 0.09895,-0.71331 -0.248179,-1.35149 -0.778404,-1.42637 -0.530225,-0.0749 -1.039548,0.44477 -1.139031,1.15835"
         fill="#374358"
         style="stroke-width:0.264583" /><path
         id="Trazado_32"
         data-name="Trazado 32"
         d="m 88.809939,166.03752 c -0.100012,0.71437 0.248973,1.35202 0.77814,1.42637 0.529167,0.0743 1.039812,-0.44477 1.139296,-1.15835 0.09948,-0.71358 -0.248444,-1.35202 -0.77814,-1.42637 -0.529696,-0.0743 -1.039548,0.44477 -1.139296,1.15835"
         fill="#374358"
         style="stroke-width:0.264583" /><path
         id="Trazado_33"
         data-name="Trazado 33"
         d="m 92.472831,166.54949 c -0.100277,0.71437 0.248708,1.35228 0.77814,1.42557 0.529431,0.0733 1.039548,-0.4445 1.139031,-1.15808 0.09948,-0.71358 -0.248179,-1.35149 -0.777875,-1.42584 -0.529696,-0.0744 -1.039813,0.44424 -1.139296,1.15835"
         fill="#374358"
         style="stroke-width:0.264583" /><path
         id="Trazado_34"
         data-name="Trazado 34"
         d="m 95.715564,167.00219 c -0.100013,0.71437 0.248708,1.35202 0.777875,1.4261 0.529166,0.0741 1.039812,-0.44503 1.13956,-1.15808 0.09975,-0.71305 -0.248973,-1.35176 -0.778933,-1.42637 -0.529961,-0.0746 -1.039019,0.44477 -1.137709,1.15835"
         fill="#374358"
         style="stroke-width:0.264583" /><path
         id="Trazado_35"
         data-name="Trazado 35"
         d="m 99.425551,167.52024 c -0.09975,0.71438 0.248179,1.35255 0.777879,1.4269 0.52969,0.0744 1.03954,-0.44556 1.13929,-1.15835 0.0998,-0.71278 -0.24844,-1.35255 -0.77814,-1.42663 -0.52969,-0.0741 -1.039545,0.44503 -1.139029,1.15808"
         fill="#374358"
         style="stroke-width:0.264583" /><path
         id="Trazado_36"
         data-name="Trazado 36"
         d="m 103.16015,168.04385 c -0.0992,0.71438 0.24923,1.35176 0.77813,1.42558 0.52891,0.0738 1.03955,-0.44477 1.1393,-1.15808 0.0998,-0.71332 -0.24844,-1.3515 -0.77814,-1.42558 -0.52969,-0.0741 -1.03955,0.44397 -1.13929,1.15808"
         fill="#374358"
         style="stroke-width:0.264583" /><path
         id="Trazado_37"
         data-name="Trazado 37"
         d="m 106.82304,168.55423 c -0.0998,0.71438 0.24871,1.35202 0.7784,1.42637 0.5297,0.0743 1.03928,-0.44476 1.1393,-1.15887 0.10001,-0.71411 -0.24845,-1.35149 -0.77841,-1.42637 -0.52996,-0.0749 -1.03955,0.44556 -1.13929,1.15887"
         fill="#374358"
         style="stroke-width:0.264583" /><path
         id="Trazado_38"
         data-name="Trazado 38"
         d="m 110.31157,169.0416 c -0.0995,0.71437 0.24871,1.35202 0.77814,1.42557 0.52943,0.0736 1.03928,-0.44397 1.13903,-1.15808 0.0998,-0.71411 -0.24845,-1.35123 -0.77814,-1.42557 -0.5297,-0.0744 -1.03928,0.44476 -1.13771,1.15808"
         fill="#374358"
         style="stroke-width:0.264583" /><path
         id="Trazado_39"
         data-name="Trazado 39"
         d="m 114.02182,169.55992 c -0.10001,0.71437 0.24818,1.35228 0.77788,1.42636 0.52969,0.0741 1.03954,-0.44476 1.13929,-1.15834 0.0998,-0.71358 -0.24844,-1.35202 -0.7784,-1.42611 -0.52996,-0.0741 -1.03955,0.44397 -1.13771,1.15809"
         fill="#374358"
         style="stroke-width:0.264583" /><path
         id="Trazado_40"
         data-name="Trazado 40"
         d="m 117.75641,170.08114 c -0.0995,0.71438 0.24871,1.35203 0.77841,1.4269 0.52969,0.0749 1.03928,-0.44529 1.13929,-1.15887 0.10002,-0.71358 -0.2487,-1.35202 -0.77814,-1.42611 -0.52943,-0.0741 -1.04007,0.44397 -1.13956,1.15808"
         fill="#374358"
         style="stroke-width:0.264583" /><g
         id="Grupo_45"
         data-name="Grupo 45"
         transform="matrix(0.26458333,0,0,0.26458333,74.954441,152.40263)"
         opacity="0.5"><g
           id="Grupo_44"
           data-name="Grupo 44"><g
             id="Grupo_43"
             data-name="Grupo 43"
             clip-path="url(#clip-path-17)"><path
               id="Trazado_41"
               data-name="Trazado 41"
               d="m 170.443,90.852 c 58.208,11.194 147.906,30.651 147.091,34.887 -0.815,4.236 -93.252,-15.895 -151.282,-27.986 -12.478,-2.6 -18.319,-11.232 4.191,-6.9"
               transform="translate(-155.22,-89.657)"
               fill="#ffffff" /></g></g></g><g
         id="Grupo_48"
         data-name="Grupo 48"
         transform="matrix(0.26458333,0,0,0.26458333,122.44536,178.83224)"
         opacity="0.5"><g
           id="Grupo_47"
           data-name="Grupo 47"><g
             id="Grupo_46"
             data-name="Grupo 46"
             clip-path="url(#clip-path-18)"><path
               id="Trazado_42"
               data-name="Trazado 42"
               d="m 131.4,178.9 c 20.4,8.923 52.665,21.285 52.128,22.511 -0.537,1.226 -33.75,-11.6 -54.038,-20.78 -4.363,-1.976 -5.981,-5.181 1.91,-1.731"
               transform="translate(-125.848,-177.375)"
               fill="#ffffff" /></g></g></g><g
         id="Grupo_51"
         data-name="Grupo 51"
         transform="matrix(0.26458333,0,0,0.26458333,55.951071,167.29879)"
         opacity="0.2"><g
           id="Grupo_50"
           data-name="Grupo 50"><g
             id="Grupo_49"
             data-name="Grupo 49"
             clip-path="url(#clip-path-19)"><path
               id="Trazado_43"
               data-name="Trazado 43"
               d="m 434.393,147.592 c 4.832,1.532 -29.6,-1.692 -46.636,-6.932 -6.691,-2.058 -12.068,-4.222 -11.7,-5.774 0.368,-1.552 5.773,-1.757 11.745,1.306 9.63,4.941 41.851,9.892 46.589,11.4"
               transform="translate(-376.041,-133.784)"
               fill="#ffffff" /></g></g></g><text
         xml:space="preserve"
         transform="matrix(0.57261524,0.1042788,-0.1042788,0.57261524,103.44481,-173.22792)"
         id="text1"
         style="font-size:13.3333px;line-height:1.2;font-family:'Arial Rounded MT Bold';-inkscape-font-specification:'Arial Rounded MT Bold, ';letter-spacing:0.12px;white-space:pre;shape-inside:url(#rect1);fill:#13bf5d;fill-opacity:1;stroke:#050605;stroke-width:0.359055;stroke-dasharray:none;stroke-dashoffset:0;stroke-opacity:1"><tspan
           x="74.322266"
           y="569.73872"
           id="tspan2">Planazo</tspan></text></g></g></svg>
